<svg width="24" height="25" viewBox="0 0 24 25" fill="none" xmlns="http://www.w3.org/2000/svg">
<path d="M22.3588 3.47906H1.63473C1.28439 3.47906 1.00033 3.76806 1.00033 4.12449V5.63053C1.00033 6.6982 1.8541 7.56685 2.90357 7.56685H21.09C22.1394 7.56685 22.9932 6.69824 22.9932 5.63053V4.12449C22.9932 3.76806 22.7091 3.47906 22.3588 3.47906Z" fill="#C62306"/>
<path d="M17.5206 9.52415C17.2728 9.27209 16.8711 9.27209 16.6234 9.52415L15.3546 10.815C15.1068 11.0671 15.1068 11.4757 15.3546 11.7278C15.4784 11.8538 15.6408 11.9168 15.8032 11.9168C15.9655 11.9168 16.1279 11.8538 16.2518 11.7278L17.5206 10.4369C17.7684 10.1849 17.7684 9.77618 17.5206 9.52415Z" fill="#C62306"/>
<path d="M17.5207 12.1058C17.273 11.8537 16.8713 11.8537 16.6235 12.1059L15.7777 12.9664C15.5299 13.2185 15.5299 13.6271 15.7777 13.8792C15.9015 14.0052 16.0639 14.0682 16.2262 14.0682C16.3886 14.0682 16.551 14.0052 16.6748 13.8792L17.5207 13.0186C17.7685 12.7665 17.7685 12.3579 17.5207 12.1058Z" fill="#C62306"/>
<path d="M8.63892 10.815L7.37013 9.5241C7.12241 9.27203 6.72069 9.27203 6.47297 9.52414C6.22521 9.77621 6.22521 10.1849 6.47297 10.4369L7.74177 11.7278C7.86561 11.8538 8.02798 11.9168 8.19035 11.9168C8.35272 11.9168 8.51509 11.8538 8.63892 11.7277C8.88669 11.4757 8.88669 11.067 8.63892 10.815Z" fill="#C62306"/>
<path d="M8.21583 12.9664L7.36996 12.1058C7.12224 11.8537 6.72053 11.8537 6.47277 12.1058C6.225 12.3579 6.225 12.7666 6.47281 13.0186L7.31868 13.8792C7.44251 14.0053 7.60488 14.0682 7.76725 14.0682C7.92962 14.0682 8.09199 14.0053 8.21583 13.8792C8.46359 13.6271 8.46359 13.2185 8.21583 12.9664Z" fill="#C62306"/>
<path d="M9.67066 15.1798V16.7486L14.323 14.382V12.8132L9.67066 15.1798Z" fill="#C62306"/>
<path d="M7.9788 6.58525V8.09128C7.9788 8.44776 8.26286 8.73671 8.6132 8.73671H9.67054V10.0276H14.3229V8.73671H15.3802C15.7306 8.73671 16.0146 8.44771 16.0146 8.09128V6.58525H7.9788Z" fill="#C62306"/>
<path d="M9.67066 11.3184V13.7164L14.323 11.3498V11.3184H9.67066Z" fill="#C62306"/>
<path d="M9.69373 18.1802C9.71942 18.2746 9.76598 18.3627 9.83093 18.4369L11.5227 20.3733C11.6431 20.5111 11.8157 20.5899 11.9969 20.5899C12.1781 20.5899 12.3506 20.5111 12.4711 20.3732L14.1628 18.4369C14.266 18.3187 14.3231 18.1662 14.3231 18.0081V15.8253L9.69373 18.1802Z" fill="#C62306"/>
<path d="M22.3655 15.0163H15.8099C15.4596 15.0163 15.1755 15.3053 15.1755 15.6617V19.1041H22.3655C22.7159 19.1041 22.9999 18.8151 22.9999 18.4586V15.6618C22.9999 15.3052 22.7158 15.0163 22.3655 15.0163Z" fill="#C62306"/>
<path d="M1.63464 15.0163H8.19023C8.54057 15.0163 8.82463 15.3053 8.82463 15.6617V19.1041H1.63464C1.28426 19.1041 1.00024 18.8151 1.00024 18.4586V15.6618C1.00024 15.3052 1.2843 15.0163 1.63464 15.0163Z" fill="#C62306"/>
</svg>
