<svg width="14" height="14" viewBox="0 0 14 14" fill="none" xmlns="http://www.w3.org/2000/svg">
<path fill-rule="evenodd" clip-rule="evenodd" d="M3 0C1.34315 0 0 1.34315 0 3V11C0 12.6569 1.34315 14 3 14H11C12.6569 14 14 12.6569 14 11V3C14 1.34315 12.6569 0 11 0H3ZM11.5918 2.10815C11.9821 2.33079 12.1159 2.82388 11.8905 3.20951L6.99423 11.5883C6.94996 11.664 6.89513 11.73 6.83264 11.7854C6.51257 12.0785 6.01247 12.0714 5.70122 11.7639L2.23901 8.34324C1.92033 8.02838 1.92033 7.51789 2.23901 7.20303C2.5577 6.88818 3.0744 6.88818 3.39309 7.20303L6.10596 9.88332L10.4771 2.40326C10.7024 2.01764 11.2015 1.88551 11.5918 2.10815Z" fill="#C62306"/>
</svg>
