<svg width="50" height="50" viewBox="0 0 50 50" fill="none" xmlns="http://www.w3.org/2000/svg">
<path d="M33.2816 16.4433C35.0756 16.4433 36.535 14.998 36.535 13.2214C36.535 13.0785 36.5246 12.9379 36.5062 12.7997L36.883 12.7924C37.3209 12.7837 37.7929 12.4818 37.9809 12.0901L38.2922 11.4413C38.4093 11.1972 38.4031 10.9423 38.2752 10.7421C38.1474 10.5419 37.9179 10.4271 37.6431 10.4271L34.9081 10.4333C34.4292 10.1583 33.8739 10 33.2816 10C31.4878 10 30.0284 11.4451 30.0284 13.2214C30.0284 14.998 31.4878 16.4433 33.2816 16.4433Z" fill="#696969"/>
<path d="M40.8568 24.8131L37.0617 17.9805C36.7952 17.5005 36.4617 17.1245 35.5998 17.1245H31.7305C31.1923 17.1245 30.7587 17.5191 30.6563 17.6258L28.5807 19.7875C28.2447 20.1374 27.9033 20.7819 27.8035 21.2546L26.9492 25.3006C26.9373 25.3572 26.9312 25.4139 26.928 25.4703L24.7648 33.7366H12.2639C11.6332 33.7366 11.1218 34.243 11.1218 34.8676C11.1218 35.1361 11.2168 35.3824 11.3746 35.5763C11.137 35.9739 11 36.4372 11 36.9318C11 38.404 12.2096 39.6017 13.6964 39.6017C15.1834 39.6017 16.393 38.404 16.393 36.9318C16.393 36.6036 16.3326 36.2892 16.2227 35.9986H21.2686C21.1587 36.2892 21.0983 36.6036 21.0983 36.9318C21.0983 38.404 22.3079 39.6017 23.7947 39.6017C25.2816 39.6017 26.4913 38.404 26.4913 36.9318C26.4913 36.4816 26.3777 36.0573 26.1782 35.6848C26.5103 35.4548 26.7638 35.1142 26.8687 34.7134L29.1421 26.0264C29.1999 25.9354 29.2462 25.8371 29.2773 25.7326L30.2029 22.6128C30.2663 22.3991 30.4188 22.1178 30.5883 21.8824V27.0772L28.0611 37.8078C27.8435 38.7321 28.4191 39.6856 29.3442 39.9332L29.3712 39.9404C29.5188 39.9799 29.6703 40 29.8214 40C30.6142 40 31.2945 39.4632 31.4755 38.6946L33.7819 28.9016L34.6815 31.3215C34.9293 31.9879 35.201 33.1475 35.2747 33.8537L35.7568 38.4641C35.842 39.2787 36.491 39.8699 37.2999 39.8699C37.432 39.8699 37.5661 39.8539 37.6981 39.8222L37.7253 39.8157C38.642 39.5959 39.2919 38.663 39.174 37.7363L38.4577 32.1121C38.36 31.3447 38.0531 30.1328 37.7736 29.4105L36.7483 26.7613C36.7396 26.7387 36.729 26.717 36.7194 26.6949V22.7467L38.6525 26.1647C38.8469 26.5086 39.2114 26.7221 39.6038 26.7221C39.815 26.7221 40.0221 26.6609 40.2027 26.5451L40.4577 26.3817C40.9744 26.0505 41.1533 25.3469 40.8568 24.8131ZM23.7947 36.0415C24.2907 36.0415 24.6941 36.4409 24.6941 36.9318C24.6941 37.4227 24.2907 37.8221 23.7947 37.8221C23.2991 37.8221 22.8957 37.4228 22.8957 36.9318C22.8957 36.4408 23.2991 36.0415 23.7947 36.0415ZM13.6964 37.8221C13.2006 37.8221 12.7973 37.4228 12.7973 36.9318C12.7973 36.4408 13.2006 36.0415 13.6964 36.0415C14.1923 36.0415 14.5958 36.4409 14.5958 36.9318C14.5958 37.4227 14.1923 37.8221 13.6964 37.8221Z" fill="#696969"/>
<path d="M12.0184 31.9738H23.338C23.7997 31.9738 24.1755 31.6017 24.1755 31.1444V23.5395C24.1755 23.0823 23.7997 22.7102 23.338 22.7102H12.0184C11.5566 22.7102 11.1808 23.0823 11.1808 23.5395V31.1444C11.1808 31.6017 11.5566 31.9738 12.0184 31.9738Z" fill="#696969"/>
</svg>
