<svg width="20" height="20" viewBox="0 0 20 20" fill="none" xmlns="http://www.w3.org/2000/svg">
<path fill-rule="evenodd" clip-rule="evenodd" d="M14.4108 7.74999C14.4108 4.02241 11.4487 1 7.7953 1C4.14192 1 1.17969 4.02241 1.17969 7.74999C1.17969 11.4776 4.14192 14.4998 7.7953 14.4998C11.4487 14.4998 14.4108 11.4776 14.4108 7.74999ZM7.79525 12.8123C5.0592 12.8123 2.83359 10.5416 2.83359 7.75002C2.83359 4.95839 5.0592 2.68757 7.79525 2.68757C10.5312 2.68757 12.757 4.95839 12.757 7.75002C12.757 10.5416 10.5312 12.8123 7.79525 12.8123Z" fill="white"/>
<path fill-rule="evenodd" clip-rule="evenodd" d="M18.3366 16.1195L14.2894 11.9897C13.6863 12.9467 12.8883 13.7605 11.9504 14.3759L15.998 18.5056C16.6441 19.1648 17.6918 19.1648 18.3366 18.5056C18.9828 17.8476 18.9828 16.7786 18.3366 16.1195Z" fill="white"/>
</svg>
