<svg width="30" height="30" viewBox="0 0 30 30" fill="none" xmlns="http://www.w3.org/2000/svg">
<path d="M17.8862 17.5367C17.8862 16.8371 18.4547 16.2686 19.1543 16.2686C19.8541 16.2686 20.4226 16.8371 20.4226 17.5367C20.4226 18.2365 19.8541 18.8048 19.1543 18.8048C18.4547 18.8048 17.8862 18.2365 17.8862 17.5367Z" fill="#C62306"/>
<path d="M9.00858 18.8048C8.30901 18.8048 7.74044 19.3734 7.74044 20.073C7.74044 20.7727 8.30901 21.3411 9.00858 21.3411C9.70836 21.3411 10.2769 20.7727 10.2769 20.073C10.2769 19.3734 9.70836 18.8048 9.00858 18.8048Z" fill="#C62306"/>
<path fill-rule="evenodd" clip-rule="evenodd" d="M15 30C23.2843 30 30 23.2843 30 15C30 6.71568 23.2843 0 15 0C6.71568 0 0 6.71568 0 15C0 23.2843 6.71568 30 15 30ZM19.1543 21.3411C21.2524 21.3411 22.9591 19.6346 22.9591 17.5367V7.39139C22.9591 6.55999 22.1723 5.96003 21.3836 6.16176L11.2379 8.69803C10.6733 8.83908 10.2769 9.3457 10.2769 9.92766V16.5021C9.98375 16.3975 9.67718 16.3205 9.35784 16.287C9.24296 16.275 9.1266 16.2686 9.00858 16.2686C6.91071 16.2686 5.20396 17.9751 5.20396 20.073C5.20396 22.1708 6.91071 23.8776 9.00858 23.8776C11.1067 23.8776 12.8132 22.1708 12.8132 20.073V10.9185L20.4226 9.01632V13.9658C20.024 13.8237 19.6011 13.7323 19.1543 13.7323C17.0564 13.7323 15.3497 15.4388 15.3497 17.5367C15.3497 19.6346 17.0564 21.3411 19.1543 21.3411Z" fill="#C62306"/>
</svg>
