<svg width="30" height="30" viewBox="0 0 30 30" fill="none" xmlns="http://www.w3.org/2000/svg">
<path fill-rule="evenodd" clip-rule="evenodd" d="M15 30C23.2843 30 30 23.2843 30 15C30 6.71568 23.2843 0 15 0C6.71568 0 0 6.71568 0 15C0 23.2843 6.71568 30 15 30ZM23.1205 8.81961C23.2102 9.44636 23.0269 10.0802 22.6117 10.5799L21.9093 11.4258L16.7773 7.79381L17.5051 6.91574C18.3576 5.89453 19.9309 5.69824 21.0414 6.47482L22.1348 7.24491C22.676 7.62577 23.0311 8.19308 23.1205 8.81961ZM7.71429 24L8.00893 19.1957L12.3505 22.2309L7.71429 24ZM21.1865 12.2953L16.0553 8.66413L8.2975 18.0222L13.441 21.6184L21.1865 12.2953Z" fill="#C62306"/>
</svg>
