<svg width="21" height="20" viewBox="0 0 21 20" fill="none" xmlns="http://www.w3.org/2000/svg">
<path fill-rule="evenodd" clip-rule="evenodd" d="M20.0622 8.76452C20.406 8.47814 20.2294 7.91895 19.7834 7.88204L14.0713 7.4093C13.8889 7.39421 13.7293 7.28064 13.6552 7.11325L11.4092 2.0347C11.2335 1.63757 10.6699 1.63772 10.4945 2.03496L8.24792 7.12224C8.17384 7.28999 8.01388 7.40373 7.83111 7.41861L2.12363 7.88334C1.67711 7.9197 1.50006 8.47975 1.84454 8.76616L6.14933 12.3453C6.29613 12.4674 6.36061 12.6624 6.31552 12.8479L5.01763 18.1875C4.91366 18.6152 5.37321 18.9588 5.75411 18.7382L10.7009 15.8727C10.8559 15.7829 11.0471 15.7829 11.2022 15.8727L16.1509 18.7393C16.5315 18.9598 16.9908 18.6168 16.8876 18.1893L15.597 12.8472C15.5522 12.662 15.6166 12.4675 15.763 12.3456L20.0622 8.76452Z" fill="#C4C4C4"/>
</svg>
