<svg width="24" height="24" viewBox="0 0 24 24" fill="none" xmlns="http://www.w3.org/2000/svg">
<path d="M11.9998 12.6561C14.7239 12.6561 16.9325 10.0468 16.9325 6.82804C16.9325 2.36451 14.724 1 11.9998 1C9.2755 1 7.06714 2.36451 7.06714 6.82804C7.06719 10.0468 9.27555 12.6561 11.9998 12.6561Z" fill="white"/>
<path d="M22.8924 21.2343L20.4038 15.5753C20.29 15.3164 20.09 15.1016 19.8411 14.9708L15.979 12.9413C15.8938 12.8966 15.7907 12.9053 15.7141 12.9638C14.6218 13.7978 13.3374 14.2386 12 14.2386C10.6625 14.2386 9.37821 13.7978 8.28586 12.9638C8.20908 12.9053 8.10595 12.8966 8.02078 12.9413L4.1589 14.9708C3.9099 15.1016 3.71015 15.3162 3.59622 15.5753L1.10762 21.2343C0.936048 21.6245 0.971212 22.0708 1.20172 22.4287C1.43211 22.7865 1.82204 23 2.24481 23H21.7551C22.1779 23 22.5679 22.7864 22.7983 22.4286C23.0287 22.0708 23.064 21.6243 22.8924 21.2343Z" fill="white"/>
</svg>
