<svg width="24" height="25" viewBox="0 0 24 25" fill="none" xmlns="http://www.w3.org/2000/svg">
<path fill-rule="evenodd" clip-rule="evenodd" d="M21.7708 5.03448H8.51035C8.32471 5.03448 8.14746 5.10623 8.01624 5.23211L7.11451 6.10784L6.21278 5.23211C6.08157 5.10623 5.90431 5.03448 5.71868 5.03448H2.22909C1.45998 5.03448 0.833252 5.64223 0.833252 6.38801V18.5699C0.833252 19.317 1.45998 19.9234 2.22909 19.9234H5.71868C5.90431 19.9234 6.08157 19.8517 6.21278 19.7258L7.11451 18.8501L8.01624 19.7244C8.14746 19.8517 8.32471 19.9234 8.51035 19.9234H21.7708C22.5413 19.9234 23.1666 19.317 23.1666 18.5699V6.38801C23.1666 5.64223 22.5413 5.03448 21.7708 5.03448ZM6.4166 17.2163V15.8628H7.81243V17.2163H6.4166ZM6.4166 14.5092V13.1557H7.81243V14.5092H6.4166ZM6.4166 11.8022V10.4486H7.81243V11.8022H6.4166ZM6.4166 9.0951V7.74157H7.81243V9.0951H6.4166ZM19.858 7.51597H17.8239V13.4999L13.3221 7.51597H11.5864V17.4419H13.6204V11.4863L18.1223 17.4419H19.858V7.51597ZM3.31474 7.51597C2.85789 7.51597 2.48758 7.88631 2.48758 8.34313V16.6148C2.48758 17.0716 2.85789 17.4419 3.31474 17.4419H3.72832C4.18517 17.4419 4.55548 17.0716 4.55548 16.6148V8.34313C4.55548 7.88631 4.18517 7.51597 3.72832 7.51597H3.31474Z" fill="#C62306"/>
</svg>
