<svg width="24" height="25" viewBox="0 0 24 25" fill="none" xmlns="http://www.w3.org/2000/svg">
<path d="M1 6.77108C1 6.32107 1.3648 5.95627 1.81481 5.95627H3.05474C3.50475 5.95627 3.86956 6.32107 3.86956 6.77108V8.12911C3.86956 8.57912 3.50475 8.94392 3.05474 8.94392H1.81482C1.36481 8.94392 1 8.57912 1 8.12911V6.77108Z" fill="#C62306"/>
<path d="M5.78266 6.77108C5.78266 6.32107 6.14746 5.95627 6.59747 5.95627H7.8374C8.28741 5.95627 8.65222 6.32107 8.65222 6.77108V8.12911C8.65222 8.57912 8.28741 8.94392 7.8374 8.94392H6.59748C6.14747 8.94392 5.78266 8.57912 5.78266 8.12911V6.77108Z" fill="#C62306"/>
<path d="M15.3478 6.77108C15.3478 6.32107 15.7126 5.95627 16.1626 5.95627H17.4025C17.8525 5.95627 18.2173 6.32107 18.2173 6.77108V8.12911C18.2173 8.57912 17.8525 8.94392 17.4025 8.94392H16.1626C15.7126 8.94392 15.3478 8.57912 15.3478 8.12911V6.77108Z" fill="#C62306"/>
<path d="M20.1304 6.77108C20.1304 6.32107 20.4952 5.95627 20.9453 5.95627H22.1852C22.6352 5.95627 23 6.32107 23 6.77108V8.12911C23 8.57912 22.6352 8.94392 22.1852 8.94392H20.9453C20.4952 8.94392 20.1304 8.57912 20.1304 8.12911V6.77108Z" fill="#C62306"/>
<path d="M1 11.7505C1 11.3005 1.3648 10.9357 1.81481 10.9357H3.05474C3.50475 10.9357 3.86956 11.3005 3.86956 11.7505V13.1086C3.86956 13.5586 3.50475 13.9234 3.05474 13.9234H1.81482C1.36481 13.9234 1 13.5586 1 13.1086V11.7505Z" fill="#C62306"/>
<path d="M5.78266 11.7505C5.78266 11.3005 6.14746 10.9357 6.59747 10.9357H7.8374C8.28741 10.9357 8.65222 11.3005 8.65222 11.7505V13.1086C8.65222 13.5586 8.28741 13.9234 7.8374 13.9234H6.59748C6.14747 13.9234 5.78266 13.5586 5.78266 13.1086V11.7505Z" fill="#C62306"/>
<path d="M10.5651 11.7505C10.5651 11.3005 10.9299 10.9357 11.3799 10.9357H12.6199C13.0699 10.9357 13.4347 11.3005 13.4347 11.7505V13.1086C13.4347 13.5586 13.0699 13.9234 12.6199 13.9234H11.3799C10.9299 13.9234 10.5651 13.5586 10.5651 13.1086V11.7505Z" fill="#C62306"/>
<path d="M15.3478 11.7505C15.3478 11.3005 15.7126 10.9357 16.1626 10.9357H17.4025C17.8525 10.9357 18.2173 11.3005 18.2173 11.7505V13.1086C18.2173 13.5586 17.8525 13.9234 17.4025 13.9234H16.1626C15.7126 13.9234 15.3478 13.5586 15.3478 13.1086V11.7505Z" fill="#C62306"/>
<path d="M20.1304 11.7505C20.1304 11.3005 20.4952 10.9357 20.9453 10.9357H22.1852C22.6352 10.9357 23 11.3005 23 11.7505V13.1086C23 13.5586 22.6352 13.9234 22.1852 13.9234H20.9453C20.4952 13.9234 20.1304 13.5586 20.1304 13.1086V11.7505Z" fill="#C62306"/>
<path d="M5.78266 16.7299C5.78266 16.2799 6.14746 15.9151 6.59747 15.9151H7.8374C8.28741 15.9151 8.65222 16.2799 8.65222 16.7299V18.088C8.65222 18.538 8.28741 18.9028 7.8374 18.9028H6.59748C6.14747 18.9028 5.78266 18.538 5.78266 18.088V16.7299Z" fill="#C62306"/>
<path d="M10.5651 16.7299C10.5651 16.2799 10.9299 15.9151 11.3799 15.9151H12.6199C13.0699 15.9151 13.4347 16.2799 13.4347 16.7299V18.088C13.4347 18.538 13.0699 18.9028 12.6199 18.9028H11.3799C10.9299 18.9028 10.5651 18.538 10.5651 18.088V16.7299Z" fill="#C62306"/>
<path d="M20.1304 16.7299C20.1304 16.2799 20.4952 15.9151 20.9453 15.9151H22.1852C22.6352 15.9151 23 16.2799 23 16.7299V18.088C23 18.538 22.6352 18.9028 22.1852 18.9028H20.9453C20.4952 18.9028 20.1304 18.538 20.1304 18.088V16.7299Z" fill="#C62306"/>
</svg>
