<svg width="24" height="25" viewBox="0 0 24 25" fill="none" xmlns="http://www.w3.org/2000/svg">
<path d="M7.81254 17.6756C7.51182 17.5836 7.11019 17.6208 6.9116 17.7589C6.71236 17.8969 6.79357 18.0834 7.09178 18.1752C7.35001 18.2546 7.49783 18.3824 7.49783 18.5258C7.49783 18.6691 7.35001 18.7969 7.09178 18.8764C6.4751 19.0663 6.10711 19.3841 6.10711 19.7265C6.10711 20.0689 6.4751 20.3867 7.09178 20.5766C7.20279 20.6106 7.32779 20.6271 7.45153 20.6271C7.66156 20.6271 7.86772 20.5801 7.99272 20.4934C8.19196 20.3553 8.11136 20.1692 7.81254 20.0771C7.55431 19.9976 7.40649 19.8698 7.40649 19.7265C7.40649 19.5831 7.55431 19.4553 7.81254 19.3759C8.42923 19.1859 8.79721 18.8681 8.79721 18.5257C8.79721 18.1834 8.42927 17.8656 7.81254 17.6756Z" fill="#C62306"/>
<path d="M12.3605 17.6756C12.061 17.5836 11.6575 17.6208 11.4595 17.7589C11.2603 17.8969 11.3415 18.0834 11.6397 18.1752C11.8979 18.2546 12.0458 18.3824 12.0458 18.5258C12.0458 18.6691 11.8979 18.7969 11.6397 18.8764C11.023 19.0663 10.655 19.3841 10.655 19.7265C10.655 20.0689 11.023 20.3867 11.6397 20.5766C11.7507 20.6106 11.8757 20.6271 11.9995 20.6271C12.2095 20.6271 12.4156 20.5801 12.5406 20.4934C12.7399 20.3553 12.6593 20.1692 12.3605 20.0771C12.1022 19.9976 11.9544 19.8698 11.9544 19.7265C11.9544 19.5831 12.1022 19.4553 12.3605 19.3759C12.9771 19.1859 13.3451 18.8681 13.3451 18.5257C13.3451 18.1834 12.9772 17.8656 12.3605 17.6756Z" fill="#C62306"/>
<path d="M16.9082 17.6756C16.6081 17.5836 16.2052 17.6208 16.0072 17.7589C15.808 17.8969 15.8892 18.0834 16.1874 18.1752C16.4457 18.2546 16.5935 18.3824 16.5935 18.5258C16.5935 18.6691 16.4457 18.7969 16.1874 18.8764C15.5707 19.0663 15.2028 19.3841 15.2028 19.7265C15.2028 20.0689 15.5707 20.3867 16.1874 20.5766C16.2984 20.6106 16.4234 20.6271 16.5472 20.6271C16.7572 20.6271 16.9634 20.5801 17.0884 20.4934C17.2876 20.3553 17.207 20.1692 16.9082 20.0771C16.65 19.9976 16.5021 19.8698 16.5021 19.7265C16.5021 19.5831 16.65 19.4553 16.9082 19.3759C17.5249 19.1859 17.8929 18.8681 17.8929 18.5257C17.8929 18.1834 17.5249 17.8656 16.9082 17.6756Z" fill="#C62306"/>
<path d="M6.0153 11.3187L5.69294 12.7163H18.3071L17.9848 11.3187H6.0153Z" fill="#C62306"/>
<path d="M21.0664 4.33075H2.93359C1.86737 4.33075 1 5.27114 1 6.42713V14.8126C1 15.9686 1.86737 16.909 2.93359 16.909H3.39748L4.8867 10.4506C4.95845 10.1394 5.21588 9.9211 5.51172 9.9211H18.4883C18.7841 9.9211 19.0415 10.1395 19.1133 10.4506L20.6025 16.909H21.0664C22.1326 16.909 23 15.9686 23 14.8126V6.42713C23 5.27114 22.1326 4.33075 21.0664 4.33075ZM8.08984 8.52351H6.80078C6.44453 8.52351 6.15625 8.21096 6.15625 7.82472C6.15625 7.43847 6.44453 7.12592 6.80078 7.12592H8.08984C8.4461 7.12592 8.73438 7.43847 8.73438 7.82472C8.73438 8.21096 8.4461 8.52351 8.08984 8.52351ZM12 8.52351H10.7109C10.3547 8.52351 10.0664 8.21096 10.0664 7.82472C10.0664 7.43847 10.3547 7.12592 10.7109 7.12592H12C12.3563 7.12592 12.6445 7.43847 12.6445 7.82472C12.6445 8.21096 12.3563 8.52351 12 8.52351ZM14.5781 8.52351C14.2222 8.52351 13.9336 8.21064 13.9336 7.82472C13.9336 7.4387 14.2222 7.12592 14.5781 7.12592C14.9341 7.12592 15.2227 7.4387 15.2227 7.82472C15.2227 8.21064 14.9341 8.52351 14.5781 8.52351ZM17.1992 8.52351C16.8433 8.52351 16.5547 8.21064 16.5547 7.82472C16.5547 7.4387 16.8433 7.12592 17.1992 7.12592C17.5552 7.12592 17.8438 7.4387 17.8438 7.82472C17.8438 8.21064 17.5552 8.52351 17.1992 8.52351Z" fill="#C62306"/>
<path d="M5.37065 14.1139L4.72595 16.9091H19.2743L18.6295 14.1139C17.7206 14.1139 7.42464 14.1139 5.37065 14.1139Z" fill="#C62306"/>
</svg>
