<svg width="160" height="36" viewBox="0 0 160 36" fill="none" xmlns="http://www.w3.org/2000/svg">
<path d="M36.0635 6.29202C30.8713 6.29202 26.6949 10.3763 26.6949 15.454C26.6949 20.5318 30.8713 24.6161 36.0635 24.6161C36.5714 24.6161 37.0794 24.5609 37.5873 24.5057C37.5873 22.1324 37.5873 18.2137 37.5873 17.5514C37.1358 17.8273 36.6279 18.0481 36.0635 18.0481C34.5961 18.0481 33.4109 16.8891 33.4109 15.454C33.4109 14.019 34.5961 12.86 36.0635 12.86C37.5309 12.86 38.7161 14.019 38.7161 15.454C38.7161 15.9508 38.7161 24.6161 38.7161 24.6161H45.4885C45.4885 24.6161 45.4885 16.8891 45.4885 15.454C45.4321 10.3763 41.2557 6.29202 36.0635 6.29202Z" fill="#C62306"/>
<path d="M61.0652 6.29202V13.4119C60.1058 13.4119 59.4285 13.5775 59.0899 13.9638C58.7513 14.295 58.4691 15.0125 58.4127 16.0612C58.074 19.5383 56.7195 22.1324 54.2927 23.5674C52.9947 24.2849 51.1887 24.6713 48.8183 24.6713H47.8589V17.4962H48.1975C49.3262 17.4962 50.1164 17.2754 50.5679 16.8339C51.0194 16.3923 51.3015 15.6196 51.4144 14.4606C51.5273 12.6392 51.6966 11.2042 51.9224 10.4867C52.1481 9.76917 52.7125 8.99647 53.4462 8.27896C54.8007 7.00953 56.6631 6.34721 59.0899 6.34721H61.0652V6.29202Z" fill="#C62306"/>
<path d="M70.3211 0V24.6161H63.4357V0H70.3211ZM80.3105 6.292L77.3757 12.9152L82.5115 24.6713H74.8925L70.6032 12.9152L73.933 6.292H80.3105Z" fill="#C62306"/>
<path d="M92.3316 6.29202C87.1394 6.29202 82.963 10.3763 82.963 15.454C82.963 20.5318 87.1394 24.6161 92.3316 24.6161C97.5238 24.6161 101.7 20.5318 101.7 15.454C101.757 10.3763 97.5238 6.29202 92.3316 6.29202ZM92.3316 17.9929C90.8642 17.9929 89.679 16.8339 89.679 15.3989C89.679 13.9638 90.8642 12.8048 92.3316 12.8048C93.799 12.8048 94.9842 13.9638 94.9842 15.3989C94.9842 16.8891 93.799 17.9929 92.3316 17.9929Z" fill="#C62306"/>
<path d="M114.399 20.3662C114.399 22.7395 112.423 24.6161 109.996 24.6161C107.57 24.6161 105.651 22.6843 105.651 20.3662C105.651 18.0481 107.626 16.1163 109.996 16.1163C112.423 16.0612 114.399 17.9929 114.399 20.3662Z" fill="#C62306"/>
<path d="M127.21 24.6161H119.704V0H129.298C132.233 0 134.49 0.717509 136.127 2.15253C137.933 3.75312 138.836 5.74007 138.836 8.16856C138.836 10.6522 137.707 12.7496 135.506 14.4606L139.795 24.6161H131.951L128.339 16.6683V9.98992H128.903C130.483 9.98992 131.273 9.32761 131.273 8.00298C131.273 6.84393 130.37 6.2368 128.564 6.2368H127.21V24.6161Z" fill="#C62306"/>
<path d="M160 0V15.3436C160 18.1585 159.153 20.4214 157.404 22.0772C155.711 23.733 153.735 24.6161 150.857 24.6161C148.035 24.6161 145.496 23.7882 144.028 22.1876C142.504 20.5318 141.771 18.2137 141.771 15.1229V0H149.277V15.0677C149.277 16.5579 149.785 17.3306 150.914 17.3306C151.986 17.3306 152.55 16.5579 152.55 15.0677V0H160Z" fill="#C62306"/>
<path d="M17.6649 0L14.2222 9.98992L10.836 0H0L14.2222 33.8885L28.5009 0H17.6649Z" fill="#C62306"/>
<path d="M34.2561 30.776C34.2561 31.4538 34.1379 32.0492 33.9014 32.5623C33.665 33.0722 33.3263 33.465 32.8853 33.7405C32.4476 34.0129 31.9427 34.1491 31.3708 34.1491C30.8052 34.1491 30.3003 34.0129 29.8562 33.7405C29.4153 33.465 29.0734 33.0738 28.8305 32.567C28.5909 32.0603 28.4694 31.4759 28.4662 30.814V30.4244C28.4662 29.7498 28.5861 29.1544 28.8257 28.6381C29.0686 28.1218 29.4089 27.7275 29.8466 27.4551C30.2876 27.1796 30.7924 27.0418 31.3612 27.0418C31.9299 27.0418 32.4332 27.178 32.871 27.4504C33.3119 27.7196 33.6522 28.1092 33.8919 28.6191C34.1315 29.1258 34.2529 29.7165 34.2561 30.3912V30.776ZM33.0435 30.4149C33.0435 29.6484 32.8965 29.0609 32.6026 28.6523C32.3118 28.2438 31.898 28.0395 31.3612 28.0395C30.8372 28.0395 30.4266 28.2438 30.1294 28.6523C29.8354 29.0578 29.6853 29.6326 29.6789 30.3769V30.776C29.6789 31.5361 29.8274 32.1236 30.1246 32.5385C30.425 32.9534 30.8404 33.1609 31.3708 33.1609C31.9076 33.1609 32.3198 32.9582 32.6074 32.5528C32.8981 32.1474 33.0435 31.5551 33.0435 30.776V30.4149Z" fill="#C62306"/>
<path d="M42.1141 31.8022C42.0438 32.5401 41.769 33.1166 41.2897 33.5315C40.8104 33.9432 40.1729 34.1491 39.3773 34.1491C38.8213 34.1491 38.3308 34.0192 37.9059 33.7595C37.4841 33.4966 37.1582 33.1245 36.9281 32.6431C36.698 32.1616 36.5782 31.6026 36.5686 30.966V30.3199C36.5686 29.6674 36.6853 29.0926 36.9185 28.5953C37.1518 28.0981 37.4857 27.7148 37.9202 27.4456C38.358 27.1764 38.8628 27.0418 39.4348 27.0418C40.2049 27.0418 40.8248 27.2493 41.2945 27.6642C41.7642 28.0791 42.0374 28.665 42.1141 29.422H40.9062C40.8487 28.9247 40.7017 28.5668 40.4653 28.3483C40.232 28.1266 39.8885 28.0157 39.4348 28.0157C38.9076 28.0157 38.5018 28.2074 38.2174 28.5906C37.9362 28.9707 37.7924 29.5297 37.786 30.2676V30.8805C37.786 31.628 37.9202 32.1981 38.1886 32.5908C38.4602 32.9835 38.8565 33.1799 39.3773 33.1799C39.8534 33.1799 40.2113 33.0738 40.4509 32.8616C40.6906 32.6494 40.8423 32.2962 40.9062 31.8022H42.1141Z" fill="#C62306"/>
<path d="M50.0679 34.0541H48.86V30.9803H45.7398V34.0541H44.5272V27.1368H45.7398V30.0158H48.86V27.1368H50.0679V34.0541Z" fill="#C62306"/>
<path d="M58.4003 30.776C58.4003 31.4538 58.2821 32.0492 58.0456 32.5623C57.8092 33.0722 57.4705 33.465 57.0295 33.7405C56.5918 34.0129 56.0869 34.1491 55.5149 34.1491C54.9494 34.1491 54.4445 34.0129 54.0004 33.7405C53.5594 33.465 53.2175 33.0738 52.9747 32.567C52.735 32.0603 52.6136 31.4759 52.6104 30.814V30.4244C52.6104 29.7498 52.7302 29.1544 52.9699 28.6381C53.2127 28.1218 53.553 27.7275 53.9908 27.4551C54.4317 27.1796 54.9366 27.0418 55.5054 27.0418C56.0741 27.0418 56.5774 27.178 57.0151 27.4504C57.4561 27.7196 57.7964 28.1092 58.036 28.6191C58.2757 29.1258 58.3971 29.7165 58.4003 30.3912V30.776ZM57.1877 30.4149C57.1877 29.6484 57.0407 29.0609 56.7467 28.6523C56.456 28.2438 56.0422 28.0395 55.5054 28.0395C54.9813 28.0395 54.5707 28.2438 54.2736 28.6523C53.9796 29.0578 53.8294 29.6326 53.823 30.3769V30.776C53.823 31.5361 53.9716 32.1236 54.2688 32.5385C54.5691 32.9534 54.9845 33.1609 55.5149 33.1609C56.0517 33.1609 56.4639 32.9582 56.7515 32.5528C57.0423 32.1474 57.1877 31.5551 57.1877 30.776V30.4149Z" fill="#C62306"/>
<path d="M60.9333 34.0541V27.1368H63.3249C64.1142 27.1368 64.7149 27.2936 65.1271 27.6072C65.5393 27.9207 65.7454 28.3879 65.7454 29.0087C65.7454 29.3254 65.6591 29.6104 65.4866 29.8638C65.314 30.1172 65.0616 30.3136 64.7293 30.4529C65.1063 30.5543 65.3971 30.7459 65.6016 31.0278C65.8093 31.3065 65.9131 31.6422 65.9131 32.0349C65.9131 32.6842 65.7022 33.1831 65.2805 33.5315C64.8619 33.8799 64.2612 34.0541 63.4783 34.0541H60.9333ZM62.1459 30.9328V33.0944H63.4927C63.8729 33.0944 64.1701 33.001 64.3842 32.8141C64.5983 32.6272 64.7053 32.3675 64.7053 32.0349C64.7053 31.316 64.3347 30.9486 63.5933 30.9328H62.1459ZM62.1459 30.0491H63.3345C63.7116 30.0491 64.0055 29.9652 64.2164 29.7973C64.4305 29.6263 64.5376 29.3856 64.5376 29.0752C64.5376 28.7331 64.4385 28.4861 64.2404 28.334C64.0455 28.182 63.7403 28.106 63.3249 28.106H62.1459V30.0491Z" fill="#C62306"/>
<path d="M72.3571 32.4435H69.6539L69.0884 34.0541H67.8278L70.4639 27.1368H71.5519L74.1928 34.0541H72.9275L72.3571 32.4435ZM69.9942 31.4743H72.0169L71.0055 28.6048L69.9942 31.4743Z" fill="#C62306"/>
<path d="M81.8543 34.0541H80.6465V30.9803H77.5262V34.0541H76.3136V27.1368H77.5262V30.0158H80.6465V27.1368H81.8543V34.0541Z" fill="#C62306"/>
<path d="M88.3869 34.0541V27.1368H90.7785C91.5678 27.1368 92.1685 27.2936 92.5807 27.6072C92.9929 27.9207 93.199 28.3879 93.199 29.0087C93.199 29.3254 93.1127 29.6104 92.9402 29.8638C92.7676 30.1172 92.5152 30.3136 92.1829 30.4529C92.5599 30.5543 92.8507 30.7459 93.0552 31.0278C93.2629 31.3065 93.3667 31.6422 93.3667 32.0349C93.3667 32.6842 93.1558 33.1831 92.7341 33.5315C92.3155 33.8799 91.7148 34.0541 90.9319 34.0541H88.3869ZM89.5995 30.9328V33.0944H90.9463C91.3265 33.0944 91.6237 33.001 91.8378 32.8141C92.0519 32.6272 92.1589 32.3675 92.1589 32.0349C92.1589 31.316 91.7883 30.9486 91.0469 30.9328H89.5995ZM89.5995 30.0491H90.7881C91.1652 30.0491 91.4591 29.9652 91.67 29.7973C91.8841 29.6263 91.9912 29.3856 91.9912 29.0752C91.9912 28.7331 91.8921 28.4861 91.694 28.334C91.4991 28.182 91.1939 28.106 90.7785 28.106H89.5995V30.0491Z" fill="#C62306"/>
<path d="M104.179 34.0541H99.4871V33.2607L101.812 30.7475C102.147 30.3769 102.385 30.0681 102.526 29.8211C102.67 29.5708 102.742 29.3206 102.742 29.0704C102.742 28.741 102.647 28.475 102.459 28.2723C102.273 28.0696 102.023 27.9682 101.706 27.9682C101.329 27.9682 101.037 28.0822 100.829 28.3103C100.621 28.5383 100.518 28.8503 100.518 29.2462H99.3529C99.3529 28.825 99.4488 28.4465 99.6405 28.1107C99.8354 27.7719 100.112 27.509 100.47 27.3221C100.831 27.1352 101.246 27.0418 101.716 27.0418C102.393 27.0418 102.927 27.2113 103.317 27.5501C103.71 27.8859 103.906 28.3515 103.906 28.9469C103.906 29.2921 103.807 29.6548 103.609 30.0348C103.414 30.4117 103.093 30.8409 102.646 31.3223L100.939 33.1324H104.179V34.0541Z" fill="#C62306"/>
<path d="M110.94 31.1418C110.94 32.1363 110.751 32.8869 110.374 33.3937C110 33.8973 109.43 34.1491 108.663 34.1491C107.909 34.1491 107.34 33.9036 106.957 33.4127C106.577 32.9186 106.382 32.1886 106.372 31.2226V30.0253C106.372 29.0308 106.559 28.2849 106.933 27.7877C107.31 27.2904 107.883 27.0418 108.654 27.0418C109.417 27.0418 109.986 27.2841 110.36 27.7687C110.737 28.2533 110.93 28.9786 110.94 29.9446V31.1418ZM109.775 29.8496C109.775 29.2003 109.686 28.7252 109.507 28.4243C109.328 28.1203 109.043 27.9682 108.654 27.9682C108.273 27.9682 107.994 28.1123 107.815 28.4006C107.636 28.6856 107.542 29.1322 107.532 29.7403V31.3081C107.532 31.9542 107.623 32.4356 107.805 32.7523C107.987 33.069 108.273 33.2274 108.663 33.2274C109.037 33.2274 109.313 33.0817 109.492 32.7903C109.671 32.4958 109.765 32.0365 109.775 31.4126V29.8496Z" fill="#C62306"/>
<path d="M117.844 31.1418C117.844 32.1363 117.655 32.8869 117.278 33.3937C116.904 33.8973 116.334 34.1491 115.567 34.1491C114.813 34.1491 114.244 33.9036 113.861 33.4127C113.481 32.9186 113.286 32.1886 113.276 31.2226V30.0253C113.276 29.0308 113.463 28.2849 113.837 27.7877C114.214 27.2904 114.788 27.0418 115.558 27.0418C116.321 27.0418 116.89 27.2841 117.264 27.7687C117.641 28.2533 117.834 28.9786 117.844 29.9446V31.1418ZM116.679 29.8496C116.679 29.2003 116.59 28.7252 116.411 28.4243C116.232 28.1203 115.948 27.9682 115.558 27.9682C115.177 27.9682 114.898 28.1123 114.719 28.4006C114.54 28.6856 114.446 29.1322 114.436 29.7403V31.3081C114.436 31.9542 114.527 32.4356 114.709 32.7523C114.891 33.069 115.177 33.2274 115.567 33.2274C115.941 33.2274 116.218 33.0817 116.396 32.7903C116.575 32.4958 116.67 32.0365 116.679 31.4126V29.8496Z" fill="#C62306"/>
<path d="M123.353 34.0541H122.193V28.5003L120.482 29.0799V28.106L123.205 27.1131H123.353V34.0541Z" fill="#C62306"/>
<path d="M135.522 28.106H132.302V34.0541H131.094V27.1368H135.522V28.106Z" fill="#C62306"/>
<path d="M143.102 30.776C143.102 31.4538 142.984 32.0492 142.748 32.5623C142.511 33.0722 142.173 33.465 141.732 33.7405C141.294 34.0129 140.789 34.1491 140.217 34.1491C139.651 34.1491 139.147 34.0129 138.702 33.7405C138.261 33.465 137.92 33.0738 137.677 32.567C137.437 32.0603 137.316 31.4759 137.312 30.814V30.4244C137.312 29.7498 137.432 29.1544 137.672 28.6381C137.915 28.1218 138.255 27.7275 138.693 27.4551C139.134 27.1796 139.639 27.0418 140.207 27.0418C140.776 27.0418 141.279 27.178 141.717 27.4504C142.158 27.7196 142.498 28.1092 142.738 28.6191C142.978 29.1258 143.099 29.7165 143.102 30.3912V30.776ZM141.89 30.4149C141.89 29.6484 141.743 29.0609 141.449 28.6523C141.158 28.2438 140.744 28.0395 140.207 28.0395C139.683 28.0395 139.273 28.2438 138.976 28.6523C138.682 29.0578 138.531 29.6326 138.525 30.3769V30.776C138.525 31.5361 138.674 32.1236 138.971 32.5385C139.271 32.9534 139.687 33.1609 140.217 33.1609C140.754 33.1609 141.166 32.9582 141.454 32.5528C141.744 32.1474 141.89 31.5551 141.89 30.776V30.4149Z" fill="#C62306"/>
<path d="M151.89 35.7549H150.74V34.0541H146.143V35.7549H144.974L144.936 33.0944H145.496C145.774 32.8283 145.996 32.4419 146.163 31.9352C146.329 31.4253 146.436 30.8488 146.484 30.2059L146.666 27.1368H151.066V33.0944H151.952L151.89 35.7549ZM146.867 33.0944H149.858V28.106H147.821L147.706 30.0538C147.62 31.3556 147.34 32.3691 146.867 33.0944Z" fill="#C62306"/>
<path d="M156.7 30.7522L158.099 27.1368H159.446L157.016 32.8758L156.796 33.3082C156.476 33.8719 155.958 34.1538 155.243 34.1538L154.744 34.1253L154.754 33.1752C154.83 33.1878 154.966 33.1942 155.161 33.1942C155.506 33.1942 155.749 33.0485 155.89 32.7571L156.139 32.1727L153.752 27.1368H155.075L156.7 30.7522Z" fill="#C62306"/>
</svg>
