<svg width="20" height="20" viewBox="0 0 20 20" fill="none" xmlns="http://www.w3.org/2000/svg">
<path d="M4.78703 8.73222C3.6419 7.94675 2.95562 7.47443 2.72795 7.31527C2.31268 7.03691 1.92095 6.65417 1.55276 6.16704C1.18433 5.67968 1.00023 5.22711 1.00023 4.80957C1.00023 4.29258 1.13912 3.86164 1.41713 3.51699C1.69491 3.17233 2.09176 3 2.60723 3H17.3928C17.5692 3 17.736 3.02563 17.8931 3.07664C18.1236 3.15164 18.3335 3.28189 18.5227 3.46738C18.8408 3.77889 19 4.1534 19 4.59093C19 5.11449 18.8359 5.61502 18.5078 6.09228C18.1797 6.56953 17.7712 6.9772 17.2825 7.31527L12.5818 10.5467C12.5147 10.5933 12.3723 10.6941 12.1549 10.85C11.937 11.0061 11.7564 11.1319 11.6124 11.228C11.4683 11.324 11.2943 11.4316 11.0901 11.5511C10.9955 11.6063 10.9032 11.6552 10.8133 11.6978C10.7096 11.7469 10.6094 11.7876 10.5124 11.8193C10.3316 11.879 10.1643 11.9089 10.0103 11.9089H9.98998C9.93475 11.9089 9.87766 11.9049 9.81893 11.8971C9.71407 11.8835 9.60361 11.8576 9.48779 11.8193C9.30696 11.7601 9.11447 11.6703 8.9101 11.5511C8.70596 11.4319 8.53189 11.3242 8.38787 11.228C8.24386 11.1319 8.06302 11.0061 7.84537 10.85C7.62795 10.6944 7.48557 10.5933 7.41868 10.5467C7.10292 10.3269 6.71516 10.0587 6.25538 9.74174C5.828 9.44716 5.33862 9.11073 4.78703 8.73222Z" fill="#C4C4C4"/>
<path d="M12.9933 11.8097C14.1315 10.9944 15.799 9.85059 17.9952 8.3791C18.3771 8.12072 18.7117 7.83226 18.9998 7.51416V15.4088C18.9998 15.8468 18.8427 16.2209 18.5279 16.5326C18.213 16.8444 17.8346 17 17.3928 17H2.60723C2.16517 17 1.78672 16.8444 1.47213 16.5326C1.1573 16.2211 1 15.8466 1 15.4088V7.51416C1.29455 7.83884 1.63292 8.12754 2.01463 8.3791C3.23666 9.20125 4.2655 9.89949 5.10116 10.4738C5.92331 11.039 6.55832 11.4843 7.00668 11.8097C7.38839 12.088 7.69809 12.3053 7.93579 12.4609C8.17348 12.6168 8.48994 12.7757 8.88493 12.9382C9.27993 13.1006 9.64835 13.1817 9.98975 13.1817H10.0103C10.3516 13.1817 10.7198 13.1006 11.1148 12.9382C11.5101 12.7757 11.8263 12.6168 12.0642 12.4609C12.1852 12.3817 12.325 12.2865 12.4834 12.1753C12.6361 12.0683 12.806 11.9463 12.9933 11.8097Z" fill="#C4C4C4"/>
</svg>
