<svg width="30" height="30" viewBox="0 0 30 30" fill="none" xmlns="http://www.w3.org/2000/svg">
<path d="M15 0C6.71559 0 0 6.71471 0 15C0 23.2862 6.71559 30 15 30C23.2844 30 30 23.2862 30 15C30 6.71471 23.2844 0 15 0ZM22.8547 12.315C22.8618 12.4659 22.8653 12.6176 22.8653 12.7712C22.8653 17.4353 19.3156 22.815 12.8215 22.815C10.8274 22.815 8.97265 22.2309 7.41 21.2294C7.68706 21.2621 7.96765 21.2779 8.25265 21.2779C9.90706 21.2779 11.4282 20.7141 12.6362 19.7682C11.0921 19.7391 9.78794 18.7191 9.33971 17.3179C9.555 17.3585 9.77559 17.3797 10.0032 17.3797C10.3253 17.3797 10.6376 17.3365 10.9324 17.2553C9.31941 16.9315 8.10176 15.5029 8.10176 13.7921C8.10176 13.7779 8.10176 13.7647 8.10176 13.7488C8.57912 14.0135 9.12265 14.1715 9.70147 14.19C8.75471 13.5574 8.13176 12.4774 8.13176 11.2509C8.13176 10.6059 8.30559 9.99794 8.61 9.47647C10.35 11.6126 12.9521 13.0182 15.8859 13.1647C15.8259 12.9062 15.7941 12.6371 15.7941 12.3609C15.7941 10.4118 17.3744 8.83147 19.3235 8.83147C20.3365 8.83147 21.255 9.25941 21.9 9.94588C22.7029 9.78706 23.46 9.49324 24.1421 9.09088C23.8782 9.915 23.3171 10.6059 22.5909 11.0418C23.3047 10.9571 23.985 10.7674 24.6176 10.4868C24.1421 11.1953 23.5447 11.8182 22.8547 12.315Z" fill="#C62306"/>
</svg>
