<svg width="24" height="25" viewBox="0 0 24 25" fill="none" xmlns="http://www.w3.org/2000/svg">
<path d="M7.87496 15.3075C6.80726 15.3075 5.94199 16.1414 5.94199 17.171C5.94199 18.2005 6.80726 19.0345 7.87496 19.0345C8.94304 19.0345 9.8081 18.2005 9.8081 17.171C9.8081 16.1414 8.94304 15.3075 7.87496 15.3075ZM7.87496 17.9811C7.41082 17.9811 7.03473 17.6185 7.03473 17.171C7.03473 16.7233 7.41082 16.3608 7.87496 16.3608C8.33916 16.3608 8.71552 16.7233 8.71552 17.171C8.71552 17.6185 8.33916 17.9811 7.87496 17.9811Z" fill="#C62306"/>
<path d="M18.068 15.3075C17.0003 15.3075 16.1351 16.1414 16.1351 17.171C16.1351 18.2005 17.0003 19.0345 18.068 19.0345C19.1362 19.0345 20.0012 18.2005 20.0012 17.171C20.0012 16.1414 19.1362 15.3075 18.068 15.3075ZM18.068 17.9811C17.6039 17.9811 17.2278 17.6185 17.2278 17.171C17.2278 16.7233 17.6039 16.3608 18.068 16.3608C18.5323 16.3608 18.9086 16.7233 18.9086 17.171C18.9086 17.6185 18.5323 17.9811 18.068 17.9811Z" fill="#C62306"/>
<path d="M10.0496 9.58146C10.0496 9.84259 9.82797 10.0562 9.55717 10.0562H2.76193C2.49109 10.0562 2.26956 9.84259 2.26956 9.58146V9.2966C2.26956 9.03551 2.49114 8.82188 2.76193 8.82188H9.55717C9.82802 8.82188 10.0496 9.03551 10.0496 9.2966V9.58146Z" fill="#C62306"/>
<path d="M21.8557 12.3611C21.1469 12.1834 20.7413 12.0717 20.463 11.5535L19.5324 9.7369C19.254 9.2187 18.5309 8.79466 17.9258 8.79466H16.6529C16.6529 8.79466 16.4817 8.79811 16.4817 8.63198C16.4817 8.25107 16.4817 7.10839 16.4817 7.10839C16.4817 6.51775 16.135 6.03448 15.3976 6.03448H5.02411C3.96835 6.03448 3.46711 6.51781 3.46711 7.10839V8.06319C3.46711 8.06319 3.46711 8.34717 3.75219 8.34717C5.20344 8.34717 9.55728 8.34717 9.55728 8.34717C10.1003 8.34717 10.5421 8.77308 10.5421 9.29665V9.58151C10.5421 10.1051 10.1003 10.531 9.55728 10.531H3.75219C3.75219 10.531 3.46711 10.5082 3.46711 10.8049C3.46711 10.9522 3.46711 11.0511 3.46711 11.1332C3.46711 11.3943 3.83834 11.3942 3.83834 11.3942H7.74604C8.28909 11.3942 8.73089 11.8201 8.73089 12.3437V12.6285C8.73089 13.1521 8.28909 13.578 7.74604 13.578H3.89999C3.89999 13.578 3.46711 13.5703 3.46711 13.9026C3.46711 14.4794 3.46711 16.2098 3.46711 16.2098C3.46711 16.8004 3.96835 17.2837 4.58095 17.2837C4.58095 17.2837 5.04239 17.2837 5.1962 17.2837C5.33573 17.2837 5.35628 17.2087 5.35628 17.1711C5.35628 15.8321 6.48629 14.7429 7.87514 14.7429C9.26409 14.7429 10.394 15.8322 10.394 17.1711C10.394 17.2089 10.3829 17.2837 10.4896 17.2837C11.7092 17.2837 15.4547 17.2837 15.4547 17.2837C15.5532 17.2837 15.5492 17.2037 15.5492 17.1711C15.5492 15.8321 16.6791 14.7429 18.068 14.7429C19.4569 14.7429 20.5869 15.8322 20.5869 17.1711C20.5869 17.2089 20.5859 17.2837 20.6475 17.2837C21.2067 17.2837 21.8993 17.2837 21.8993 17.2837C22.5048 17.2837 23 16.8062 23 16.2225V14.2064C23.0001 12.5086 22.444 12.5086 21.8557 12.3611ZM19.7612 12.2667C19.7612 12.2667 17.4238 12.2667 16.6283 12.2667C16.4989 12.2667 16.4817 12.1452 16.4817 12.1452V9.62896C16.4817 9.62896 16.4744 9.53234 16.6406 9.53234C16.8641 9.53234 17.5345 9.53234 17.5345 9.53234C18.0731 9.53234 18.7165 9.90965 18.9641 10.3708L19.7922 11.9872C19.8271 12.0523 19.8644 12.1101 19.9043 12.1618C19.9337 12.1998 19.8844 12.2667 19.7612 12.2667Z" fill="#C62306"/>
<path d="M8.23834 12.6286C8.23834 12.8897 8.01676 13.1033 7.74597 13.1033H1.49237C1.22152 13.1033 1 12.8897 1 12.6286V12.3437C1 12.0826 1.22158 11.869 1.49237 11.869H7.74597C8.01682 11.869 8.23834 12.0826 8.23834 12.3437V12.6286Z" fill="#C62306"/>
</svg>
