<svg width="24" height="25" viewBox="0 0 24 25" fill="none" xmlns="http://www.w3.org/2000/svg">
<path fill-rule="evenodd" clip-rule="evenodd" d="M2.94115 5.03448C1.80417 5.03448 0.882324 5.95623 0.882324 7.09331V16.9757C0.882324 18.1128 1.80417 19.0345 2.94115 19.0345H21.0588C22.1958 19.0345 23.1177 18.1128 23.1177 16.9757V7.09331C23.1177 5.95623 22.1958 5.03448 21.0588 5.03448H2.94115ZM11.3441 16.076L11.8267 15.5896C12.1472 15.2668 12.1472 14.7434 11.8267 14.4205L6.6384 9.19225L8.40408 7.41304C8.66224 7.15288 8.47988 6.70804 8.11476 6.70743L3.34387 6.69969C2.88968 6.69894 2.52134 7.07009 2.52215 7.5277L2.52979 12.3353C2.53039 12.7033 2.97191 12.8871 3.23007 12.6269L4.99556 10.8477L10.184 16.076C10.5043 16.3989 11.0237 16.3989 11.3441 16.076ZM21.4666 16.5412C21.4672 16.9989 21.0988 17.37 20.6449 17.3693L15.874 17.3615C15.5088 17.3609 15.3265 16.9161 15.5846 16.6559L17.3501 14.8767L12.1618 9.6484C11.8416 9.32555 11.8416 8.8021 12.1618 8.4793L12.6446 7.99289C12.9649 7.67005 13.4844 7.67005 13.8047 7.99289L18.993 13.2212L20.7587 11.442C21.0168 11.1818 21.4583 11.3657 21.4587 11.7336L21.4666 16.5412Z" fill="#C62306"/>
</svg>
