<svg width="21" height="20" viewBox="0 0 21 20" fill="none" xmlns="http://www.w3.org/2000/svg">
<path d="M14.1492 6.21821H15.7271L13.388 2.32797C13.1995 2.01274 12.7819 1.90527 12.4567 2.09154C12.1315 2.27424 12.0207 2.67902 12.2128 2.99425L14.1492 6.21821Z" fill="#C62306"/>
<path d="M8.79454 2.99425C8.983 2.67902 8.87584 2.27423 8.55065 2.09154C8.22546 1.90885 7.80789 2.01273 7.61942 2.32796L5.28027 6.22179H6.85818L8.79454 2.99425Z" fill="#C62306"/>
<path d="M18.3397 7.41107H2.65664C2.01735 7.41107 1.5 7.91258 1.5 8.53229V9.77531C1.5 10.395 2.01735 10.8965 2.65664 10.8965H3.01878L4.13478 16.7606C4.2752 17.4519 4.92558 18 5.60183 18H8.9572C9.25282 18 9.63714 18 10.0288 18H10.7383C11.1301 18 11.5144 18 11.81 18H15.1654C15.8416 18 16.492 17.4519 16.6324 16.7606L17.7558 10.893H18.3434C18.9827 10.893 19.5 10.3914 19.5 9.77173V8.52871C19.4963 7.91258 18.979 7.41107 18.3397 7.41107ZM7.88555 15.8005C7.88555 16.1623 7.58253 16.4346 7.23147 16.4346C6.85824 16.4346 6.5774 16.1408 6.5774 15.8005V12.2542C6.5774 11.8924 6.88041 11.6201 7.23147 11.6201C7.6047 11.6201 7.88555 11.9139 7.88555 12.2542V15.8005ZM9.9845 15.8005C9.9845 16.1623 9.68148 16.4346 9.33042 16.4346C8.9572 16.4346 8.67635 16.1408 8.67635 15.8005V12.2542C8.67635 11.8924 8.97937 11.6201 9.33042 11.6201C9.68148 11.6201 9.9845 11.9139 9.9845 12.2542V15.8005ZM12.0945 15.8005C12.0945 16.1408 11.8137 16.4346 11.4405 16.4346C11.0894 16.4346 10.7864 16.1623 10.7864 15.8005V12.2542C10.7864 11.9139 11.0894 11.6201 11.4405 11.6201C11.7915 11.6201 12.0945 11.8924 12.0945 12.2542V15.8005ZM14.1935 15.8005C14.1935 16.1408 13.9126 16.4346 13.5394 16.4346C13.1884 16.4346 12.8853 16.1623 12.8853 15.8005V12.2542C12.8853 11.9139 13.1662 11.6201 13.5394 11.6201C13.8905 11.6201 14.1935 11.8924 14.1935 12.2542V15.8005Z" fill="#C62306"/>
</svg>
