<svg width="50" height="50" viewBox="0 0 50 50" fill="none" xmlns="http://www.w3.org/2000/svg">
<path fill-rule="evenodd" clip-rule="evenodd" d="M39.8047 23.3343C40.3746 24.3985 41.2052 24.6279 42.6566 24.9927C42.7422 25.0142 42.8275 25.0342 42.9121 25.054L42.9122 25.054L42.9122 25.0541C44.0176 25.3132 45.0001 25.5434 45 28.7823V32.9227C45 34.1214 43.9858 35.102 42.746 35.102H40.1825C40.0582 35.102 40.0583 34.953 40.0583 34.8744V34.8708C40.0583 32.1212 37.7444 29.884 34.9002 29.884C32.0559 29.884 29.742 32.121 29.742 34.8708L29.742 34.8784C29.7423 34.9493 29.7429 35.102 29.5486 35.102H19.3809C19.1802 35.102 19.1831 34.9725 19.1849 34.8912L19.1852 34.8708C19.1852 32.1212 16.8712 29.884 14.0269 29.884C11.1828 29.884 8.86869 32.121 8.86869 34.8708C8.86869 34.9481 8.82661 35.102 8.54086 35.102H7.28094C6.02645 35.102 5 34.1094 5 32.8966V16.1663V14.2054C5 12.9926 6.02645 12 8.18845 12H29.4316C30.9418 12 31.6517 12.9925 31.6517 14.2054V17.3344C31.6517 17.6755 32.0023 17.6685 32.0023 17.6685H34.6089C35.8481 17.6685 37.3288 18.5393 37.899 19.6035L39.8047 23.3343ZM38.3675 24.7988H31.9518C31.6868 24.7988 31.6516 24.5493 31.6516 24.5493V19.3818C31.6516 19.3818 31.6366 19.1834 31.977 19.1834H33.8076C34.9106 19.1834 36.2281 19.9583 36.7352 20.9052L38.431 24.2249C38.5025 24.3585 38.5788 24.4772 38.6605 24.5835C38.7208 24.6615 38.6198 24.7988 38.3675 24.7988ZM14.0265 31.0436C11.84 31.0436 10.0681 32.7563 10.0681 34.8706C10.0681 36.985 11.84 38.6976 14.0265 38.6976C16.2138 38.6976 17.9852 36.985 17.9852 34.8706C17.9852 32.7563 16.2138 31.0436 14.0265 31.0436ZM14.0265 36.5343C13.076 36.5343 12.3059 35.7896 12.3059 34.8706C12.3059 33.9511 13.076 33.2068 14.0265 33.2068C14.9771 33.2068 15.7478 33.9511 15.7478 34.8706C15.7478 35.7896 14.9771 36.5343 14.0265 36.5343ZM34.9001 31.0436C32.7137 31.0436 30.9419 32.7563 30.9419 34.8706C30.9419 36.985 32.7137 38.6976 34.9001 38.6976C37.0875 38.6976 38.8589 36.985 38.8589 34.8706C38.8589 32.7563 37.0875 31.0436 34.9001 31.0436ZM34.9001 36.5343C33.9497 36.5343 33.1796 35.7896 33.1796 34.8706C33.1796 33.9511 33.9497 33.2068 34.9001 33.2068C35.8508 33.2068 36.6216 33.9511 36.6216 34.8706C36.6216 35.7896 35.8508 36.5343 34.9001 36.5343ZM22.3683 16.203C22.4097 16.0816 22.5239 16 22.6522 16H26.5496C26.7638 16 26.909 16.218 26.8264 16.4156L21.2655 29.7307C21.1627 29.9767 20.8141 29.9765 20.7117 29.7303L15.1727 16.4152C15.0905 16.2176 15.2357 16 15.4497 16H19.3467C19.4756 16 19.59 16.0823 19.6311 16.2045L20.7061 19.404C20.7974 19.6759 21.1816 19.6769 21.2744 19.4055L22.3683 16.203Z" fill="white"/>
</svg>
