<svg width="50" height="50" viewBox="0 0 50 50" fill="none" xmlns="http://www.w3.org/2000/svg">
<path d="M24.4407 20.8311C24.6021 21.0329 24.9077 21.0329 25.0634 20.8311L27.6178 17.5848C27.8254 17.3254 27.6351 16.9448 27.3064 16.9448H26.3031V11.2595C26.3031 11.1153 26.1878 11 26.0437 11H23.4605C23.3163 11 23.201 11.1153 23.201 11.2595V16.9448H22.1977C21.869 16.9448 21.6787 17.3254 21.8863 17.5848L24.4407 20.8311Z" fill="#696969"/>
<path d="M36.9876 22.4572H34.4102L31.2158 13.9003C31.014 13.3641 30.4201 13.0931 29.8839 13.2949C29.3476 13.4967 29.0766 14.0906 29.2784 14.6269L32.2076 22.4629H17.2965L20.2257 14.6269C20.4275 14.0906 20.1565 13.4967 19.6203 13.2949C19.084 13.0931 18.4901 13.3641 18.2883 13.9003L15.0881 22.4572H12.5165C11.6804 22.4572 11 23.1376 11 23.9736V26.4934C11 27.3295 11.6804 28.0099 12.5165 28.0099H13.6409L15.4341 37.1606C15.6474 38.187 16.6392 39 17.6656 39H22.7628C23.1895 39 23.743 39 24.3081 39H25.1211C25.715 39 26.2974 39 26.7471 39H31.8443C32.8707 39 33.8624 38.187 34.0758 37.1606L35.869 28.0099H36.9934C37.8295 28.0099 38.5099 27.3295 38.5099 26.4934V23.9736C38.5099 23.1376 37.8295 22.4572 36.9876 22.4572ZM20.9522 35.5807C20.9522 36.1458 20.4909 36.5725 19.9605 36.5725C19.3954 36.5725 18.9687 36.1112 18.9687 35.5807V30.028C18.9687 29.4629 19.43 29.0362 19.9605 29.0362C20.5255 29.0362 20.9522 29.4975 20.9522 30.028V35.5807ZM24.1409 35.5807C24.1409 36.1458 23.6796 36.5725 23.1491 36.5725C22.584 36.5725 22.1573 36.1112 22.1573 35.5807V30.028C22.1573 29.4629 22.6186 29.0362 23.1491 29.0362C23.6796 29.0362 24.1409 29.4975 24.1409 30.028V35.5807ZM27.3468 35.575C27.3468 36.1054 26.9201 36.5667 26.355 36.5667C25.8245 36.5667 25.3633 36.14 25.3633 35.575V30.0165C25.3633 29.486 25.8245 29.0247 26.355 29.0247C26.8855 29.0247 27.3468 29.4514 27.3468 30.0165V35.575ZM30.5296 35.575C30.5296 36.1054 30.103 36.5667 29.5379 36.5667C29.0074 36.5667 28.5461 36.14 28.5461 35.575V30.0165C28.5461 29.486 28.9728 29.0247 29.5379 29.0247C30.0684 29.0247 30.5296 29.4514 30.5296 30.0165V35.575Z" fill="#696969"/>
</svg>
