<svg width="30" height="30" viewBox="0 0 30 30" fill="none" xmlns="http://www.w3.org/2000/svg">
<path d="M10.5737 12.0573C9.73451 12.4139 9.29883 13.3213 9.13749 14.1803C8.99226 15.2174 9.08915 16.3518 9.68617 17.227C10.1702 17.9724 11.2354 18.3614 12.0259 17.8751C12.5746 17.5672 12.9298 17.0487 13.1394 16.4653C13.4138 15.6389 13.4138 14.2289 13.0911 13.4186C13.0126 13.2296 12.9191 13.0522 12.8084 12.8862C12.6912 12.7104 12.5548 12.5476 12.3972 12.3976C11.9293 11.9276 11.1707 11.879 10.5737 12.0573Z" fill="#C62306"/>
<path fill-rule="evenodd" clip-rule="evenodd" d="M15 30C23.2843 30 30 23.2843 30 15C30 6.71568 23.2843 0 15 0C6.71568 0 0 6.71568 0 15C0 23.2843 6.71568 30 15 30ZM17.7997 11.5871C17.7997 10.7283 17.9772 9.83705 18.4775 9.12388C19.5264 7.51967 21.5759 6.87137 23.4155 7.03334C24.2708 7.11454 24.3677 8.50823 23.5446 8.70264C22.6733 8.70264 21.6726 8.89704 21.1885 9.70731C20.6809 10.6341 20.7093 11.6769 20.7374 12.7054C20.7487 13.1156 20.7598 13.5234 20.7367 13.9208C21.0015 13.9338 21.2662 13.9313 21.5309 13.9288C21.9277 13.9248 22.3246 13.9208 22.7216 13.9694C23.3509 14.2287 23.4639 15.2335 22.8185 15.5414C22.3885 15.6994 21.9312 15.6793 21.4731 15.6592C21.2266 15.6485 20.9797 15.6378 20.7367 15.6548C20.6721 16.9836 20.8659 18.3449 20.543 19.6415C20.1234 21.262 18.7033 22.5098 17.0736 22.7852C16.969 22.8011 16.8637 22.8187 16.758 22.8363C16.1137 22.9441 15.4543 23.0543 14.8305 22.8177C14.2171 22.445 14.314 21.5537 14.9111 21.2134L15.0883 21.2143C15.4713 21.217 15.8693 21.2199 16.2305 21.1113C16.4161 21.0555 16.5919 20.9703 16.7507 20.8405C17.5898 20.1276 17.8158 18.9607 17.7997 17.9075V11.5871ZM6.26493 10.7934C5.91002 11.1822 5.8939 11.7495 5.8939 12.2356C5.90039 13.4933 5.89662 14.7485 5.89265 16.0032C5.88679 17.8847 5.88093 19.7649 5.91002 21.651C5.94224 22.8827 7.63665 23.4337 8.44357 22.5747C8.56348 22.4364 8.6566 22.2891 8.72628 22.1344C8.84431 21.8726 8.89537 21.5899 8.89537 21.2944V19.3336C11.1385 20.2736 14.0755 19.7712 15.5924 17.7617C16.496 16.4977 16.722 14.7637 16.1411 13.3052C15.7215 12.0735 14.6886 11.1336 13.5107 10.6636C11.9132 10.0317 10.1057 10.1612 8.52434 10.7934C7.97566 10.0965 6.7975 10.0641 6.26493 10.7934Z" fill="#C62306"/>
</svg>
