<svg width="30" height="30" viewBox="0 0 30 30" fill="none" xmlns="http://www.w3.org/2000/svg">
<path d="M14.9994 18.0029C16.6543 18.0029 18.0035 16.6561 18.0035 15C18.0035 14.3462 17.7896 13.7426 17.4356 13.2496C16.89 12.4931 16.003 11.9971 15.0012 11.9971C13.9988 11.9971 13.1125 12.4925 12.5657 13.249C12.2104 13.742 11.9983 14.3456 11.9977 14.9994C11.9959 16.6555 13.3439 18.0029 14.9994 18.0029Z" fill="#C62306"/>
<path d="M21.5567 11.3265V8.43474L18.6644 8.4438L18.6741 11.3361L21.5567 11.3265Z" fill="#C62306"/>
<path d="M15 0C6.72903 0 0 6.72903 0 15C0 23.2704 6.72903 30 15 30C23.2704 30 30 23.2704 30 15C30 6.72903 23.2716 0 15 0ZM23.5308 20.2342C23.5308 22.0535 22.0517 23.532 20.2336 23.532H9.76637C7.94772 23.532 6.46923 22.0535 6.46923 20.2342V9.76698C6.46923 7.94832 7.94772 6.46983 9.76637 6.46983H20.233C22.0517 6.46983 23.5308 7.94832 23.5308 9.76698V20.2342Z" fill="#C62306"/>
<path d="M19.6662 15.0002C19.6662 17.5723 17.5732 19.6665 14.9999 19.6665C12.4266 19.6665 10.3342 17.5723 10.3342 15.0002C10.3342 14.3815 10.4575 13.79 10.6774 13.2498H8.13071V20.2344C8.13071 21.1371 8.86361 21.8682 9.76569 21.8682H20.2323C21.1332 21.8682 21.8673 21.1371 21.8673 20.2344V13.2498H19.3194C19.5411 13.79 19.6662 14.3815 19.6662 15.0002Z" fill="#C62306"/>
</svg>
